PathFileType	4	(X/Y/Z)	70_2_70_p0_0-586_filt_butterworth.trc
DataRate	CameraRate	NumFrames	NumMarkers	Units	OrigDataRate	OrigDataStartFrame	OrigNumFrames
60.0	60.0	5	27	m	60.0	73	586
Frame#	Time	RHip			RKnee			RAnkle			RBigToe			RSmallToe			RHeel			LHip			LKnee			LAnkle			LBigToe			LSmallToe			LHeel			Neck			Head			Nose			RShoulder			RElbow			RWrist			RThumb			RIndex			RPinky			LShoulder			LElbow			LWrist			LThumb			LIndex			LPinky			
		X1	Y1	Z1	X2	Y2	Z2	X3	Y3	Z3	X4	Y4	Z4	X5	Y5	Z5	X6	Y6	Z6	X7	Y7	Z7	X8	Y8	Z8	X9	Y9	Z9	X10	Y10	Z10	X11	Y11	Z11	X12	Y12	Z12	X13	Y13	Z13	X14	Y14	Z14	X15	Y15	Z15	X16	Y16	Z16	X17	Y17	Z17	X18	Y18	Z18	X19	Y19	Z19	X20	Y20	Z20	X21	Y21	Z21	X22	Y22	Z22	X23	Y23	Z23	X24	Y24	Z24	X25	Y25	Z25	X26	Y26	Z26	X27	Y27	Z27	
73	1.2166666666666666	0.36348625743769725	0.8123869440300167	0.6540087405529489	0.3757253299671469	0.38302429069738925	0.7720333485224653	0.38647806345930685	-0.04721836685245888	0.821952606828491	0.3176365653653991	-0.1057952335601625	0.624039115353702	0.3932448952956088	-0.0805984539619164	0.6146334377298731	0.3673210612751978	-0.14190637889079005	0.9124316516814156	0.12987966408271273	0.8067861208278397	0.7293762365168714	0.16003104020863115	0.37033466505828644	0.7825204724325034	0.17123882379917377	-0.044322929136479824	0.8325276514337131	0.1736585451499289	-0.10614874308293035	0.6546447996221653	0.11865501413367509	-0.09539386907984902	0.6959824124673484	0.19477849746632378	-0.10784102974532458	0.8846224390753819	0.23004519076020946	1.4653881390400858	0.6779206767156896	0.21118929556112648	1.7356351454982104	0.6200201919873701	0.19849964773490678	1.592581657864388	0.5388992602063916	0.42211264660849074	1.3615881916252592	0.6839323150736223	0.4901945113937575	1.0610079735262998	0.644507593247921	0.4965611585526466	0.7814242230901933	0.6273597888882403	0.45857757538966193	0.6442952010596792	0.6067244519595222	0.48282482990853415	0.6130799947318053	0.6206102796675992	0.5063740911124657	0.6097571967795322	0.6501924320918798	0.05655677988278068	1.3561804544345293	0.701875161449292	0.010070802391039895	1.0582149368080949	0.7643863252409155	0.006816177622453134	0.760427729868734	0.7397789256063617	0.05279228144942357	0.6578778557277986	0.6845725952130091	0.028578459902056857	0.6295017756636045	0.6999158193222679	0.009796303781142629	0.6253254105925663	0.7633808107730753	
74	1.2333333333333334	0.3629067159118713	0.8138917672109994	0.6532544132341962	0.37553983922492945	0.3833470426729504	0.7715003192004503	0.38652788634257834	-0.04746359126546469	0.8218678508248979	0.31598677049508445	-0.10274901705234347	0.6206250005124808	0.39289020463677127	-0.07921821419025338	0.6126476904241629	0.3670054052295178	-0.14191807645735022	0.9122897373663379	0.130287058443291	0.8078089149426241	0.727456286975029	0.15979952588686253	0.3703935702618916	0.7818389999945135	0.17147416061975798	-0.044405061794175985	0.8325397828827413	0.17269118317084023	-0.1046273892043427	0.6518941872645625	0.11864637808922732	-0.09530945453322476	0.6957908615501084	0.19502717579976947	-0.10870087675256487	0.8846430712150454	0.23004681182570905	1.4653325164223152	0.6779003111623483	0.20987375828258265	1.7358536682627796	0.6182434887138895	0.19838731216814132	1.5925659103699823	0.5386862570203255	0.42286960247281746	1.3605600248574132	0.6835902381748915	0.4910429464000997	1.0607640591739007	0.6449873282931895	0.5011475471627846	0.7834572764417909	0.6267405076683387	0.46369516146562395	0.6476749605185119	0.6113115298598849	0.4880356121033348	0.6128911950137313	0.6269108938406125	0.5081070083449646	0.6108644112943226	0.6499024240190672	0.05655173519668971	1.3556741116093391	0.7018102994104944	0.010109872236189388	1.0591381802636417	0.7644318333767601	0.0060059385574889705	0.7607438882962609	0.7427093568170509	0.05022958141538901	0.6578576613130174	0.6904550644320577	0.02328891217887448	0.6267717865284231	0.7133045392847432	0.00884943665372612	0.6264396161005529	0.7648053604317818	
75	1.25	0.36236911766987817	0.8151313325344391	0.6525139496555672	0.37540115104880095	0.383375889569311	0.7716128004335319	0.3865659527748699	-0.04767621319665699	0.8218207193693191	0.31535158894614324	-0.10123454001241279	0.6193681012007581	0.39248065562679313	-0.07867538382955394	0.6121129025917622	0.36668192959988793	-0.14187059234450777	0.9121905691294382	0.13064017494816046	0.8085096899623103	0.725470231420233	0.1596538736863223	0.3704162389304002	0.7813218285858854	0.17179803293716814	-0.04459350786946498	0.8325811471750642	0.17194643117068112	-0.10347161042562128	0.6498542311371419	0.11863350535322974	-0.09520067718767475	0.6955358763389808	0.19533348696230773	-0.1096037397309366	0.8848255176368437	0.23004394137895973	1.4652875709139224	0.6778833861554587	0.20911053597918283	1.7360729257648888	0.6172367792003701	0.19844798975089595	1.5925628452974985	0.5388828321246852	0.4234171144946015	1.3595766853552642	0.6831750242116853	0.49165549287028015	1.0604018543171698	0.6454714093791751	0.505452526223592	0.7849176064477755	0.6266184776619282	0.4682408564881938	0.6496542418448129	0.6177042211429096	0.49173547193319567	0.6131286841135108	0.6319988512505622	0.5102116452933991	0.6125877989065546	0.648681249431307	0.056559597168663794	1.3553752543039133	0.701758673481653	0.01017182225429484	1.059688912842816	0.7644469469143194	0.005558857695983074	0.7615220667806926	0.7443462760847582	0.04689607737871673	0.6580040631325799	0.6974785715308701	0.018562321942979045	0.6246624082041478	0.7254935798014565	0.007282650194457151	0.6279420975759029	0.764731087487073	
76	1.2666666666666666	0.36179067836974443	0.8160218147218858	0.6518687023366047	0.3753159872842174	0.3831862938732412	0.7721874108754888	0.38658255400211117	-0.04787276505867406	0.8218290922136505	0.31573013795942995	-0.10145908454692014	0.6202796689898028	0.3922255658450572	-0.07921654168726532	0.6132801410991653	0.3662930324277111	-0.14178376979537388	0.91211252078452	0.13091761587695633	0.8089642652374679	0.7234164623646373	0.15960202532441917	0.37031801753621213	0.7810286243854001	0.172201897659023	-0.0448721071239383	0.8326535432322753	0.17151232959546467	-0.10280702046830416	0.6487139587847693	0.11862694052110181	-0.09507469452464924	0.6952625686448174	0.19571117148360698	-0.11057209425103298	0.8852897542036429	0.23003738079153302	1.4652570334539656	0.6778674636544304	0.20891740317809743	1.7361857836434407	0.6170075178316865	0.198528207929793	1.5925622110780213	0.5391323102053049	0.42375439176276686	1.3587612178947708	0.6829212878898181	0.49230521611761663	1.0601005863557127	0.6458818047077078	0.5092428846541911	0.7856563399309742	0.6272004514789149	0.4722568980350157	0.6500860943034299	0.6247790647748335	0.49425751778512533	0.6134955247349543	0.6360481975600101	0.513094466221735	0.6143455758358097	0.6471923966338385	0.05657156119796629	1.3552883338647628	0.7017277880538836	0.010264526383586742	1.0595445875562033	0.7644680912374818	0.005160431144466234	0.762336184503771	0.7456977723942246	0.042935674928119436	0.6582254295136352	0.7049777428833165	0.01467597483071072	0.6231478991196819	0.7349048122614489	0.005089517872269881	0.6296917130002979	0.7632678678367151	
77	1.2833333333333334	0.3612198071337567	0.8165234737171372	0.6514212092205225	0.37527440099643444	0.3829454583126465	0.772786486032652	0.38658678525720247	-0.048050638972315096	0.8218805719590865	0.3168259479064905	-0.1029580066962484	0.6227447095507938	0.39234932269139333	-0.08070632841857597	0.6158885754546649	0.3657967424410591	-0.1416595061989519	0.9120325212081295	0.13116462804408227	0.8092636770621685	0.7212944991338526	0.15966178708029083	0.3700376406260556	0.7810067502291095	0.1726265683726456	-0.045231606032783325	0.8327533984554774	0.1714009799707959	-0.1026380381128603	0.6484508770520794	0.11863514202598346	-0.09494017561700459	0.6950150322522197	0.19612493160162187	-0.1115772958956717	0.8859894877519543	0.23002945746423678	1.4652382438548452	0.6778503304004615	0.20908001418631555	1.7361839359328093	0.6172448982683616	0.19854725448540128	1.5925589496868224	0.539245308153111	0.4238570825509052	1.3582090344607542	0.6828330442692788	0.49313616292513374	1.059869116749613	0.6462159030838264	0.5121727812826724	0.7858409117776023	0.6280860995584017	0.47564149105937364	0.6492942930217367	0.6311947097142565	0.49580960107453875	0.6136685536548041	0.6389617571169879	0.5166070786760155	0.6156830775389251	0.6453460146200035	0.05658062663762642	1.3553322806389614	0.7017089714216833	0.010366502483639031	1.0586124301102233	0.7644775290185369	0.004846357255325642	0.7629665040568674	0.7469182182141338	0.038816591496236036	0.658380023346208	0.7119414117748236	0.011667629234806064	0.6222498274723793	0.7402640836100302	0.0026545548688504004	0.6315216405898967	0.7605639048038045	
